<svg width="15" height="12" viewBox="0 0 15 12" fill="none" xmlns="http://www.w3.org/2000/svg">
<path d="M1.45 11.6C1.05125 11.6 0.710017 11.4581 0.4263 11.1744C0.1421 10.8902 0 10.5488 0 10.15V1.45C0 1.05125 0.1421 0.710017 0.4263 0.4263C0.710017 0.1421 1.05125 0 1.45 0H13.05C13.4488 0 13.7902 0.1421 14.0744 0.4263C14.3581 0.710017 14.5 1.05125 14.5 1.45V10.15C14.5 10.5488 14.3581 10.8902 14.0744 11.1744C13.7902 11.4581 13.4488 11.6 13.05 11.6H1.45ZM7.25 6.39813C7.31042 6.39813 7.37373 6.38894 7.43995 6.37057C7.50665 6.35269 7.57021 6.32563 7.63062 6.28938L12.76 3.08125C12.8567 3.02083 12.9292 2.94543 12.9775 2.85505C13.0258 2.76418 13.05 2.66438 13.05 2.55563C13.05 2.31396 12.9473 2.13271 12.7419 2.01188C12.5365 1.89104 12.325 1.89708 12.1075 2.03L7.25 5.075L2.3925 2.03C2.175 1.89708 1.96354 1.89394 1.75813 2.02058C1.55271 2.14769 1.45 2.32604 1.45 2.55563C1.45 2.67646 1.47417 2.78207 1.5225 2.87245C1.57083 2.96332 1.64333 3.03292 1.74 3.08125L6.86938 6.28938C6.92979 6.32563 6.99335 6.35269 7.06005 6.37057C7.12627 6.38894 7.18958 6.39813 7.25 6.39813Z" fill="#2874B9"/>
</svg>
