<svg width="41" height="41" viewBox="0 0 41 41" fill="none" xmlns="http://www.w3.org/2000/svg">
<path d="M33.2084 16.7573C33.2084 24.6541 27.7908 31.2793 20.4966 33.0394C19.2433 33.3539 17.9437 33.5145 16.6042 33.5145C16.2328 33.5145 15.8615 33.5011 15.4968 33.4744C6.84326 32.8988 0 25.6311 0 16.7573C0 7.88341 7.44005 0 16.6042 0C25.7683 0 33.2084 7.49526 33.2084 16.7573Z" fill="#1E4FAD"/>
<path fill-rule="evenodd" clip-rule="evenodd" d="M20.5033 13.6654C20.4768 14.7027 20.4635 17.1119 20.4635 17.1119H25.2113C24.9991 18.7716 24.7869 20.371 24.5814 21.9771H20.4966V33.0393C19.2434 33.3539 17.9437 33.5145 16.6042 33.5145C16.2329 33.5145 15.8615 33.5011 15.4968 33.4743V21.9705H11.4055V17.1186H15.5233V16.7572C15.5233 15.7802 15.5035 14.8098 15.5233 13.8327C15.5432 13.2104 15.5698 12.5813 15.6759 11.9656C15.9345 10.4866 16.6108 9.23521 17.8376 8.34515C18.9118 7.56885 20.1319 7.25432 21.4383 7.22755C22.287 7.20747 23.1358 7.24763 23.9846 7.28109C24.4488 7.30786 24.9129 7.37478 25.3506 7.41493V11.7582H25.0124C24.1835 11.7582 23.3613 11.7381 22.5258 11.7649C21.3918 11.805 20.5563 12.24 20.5099 13.6721L20.5033 13.6654Z" fill="white"/>
</svg>
