<svg width="41" height="41" viewBox="0 0 41 41" fill="none" xmlns="http://www.w3.org/2000/svg">
<path d="M37.0173 24.0076C39.1238 15.0003 33.5963 5.97508 24.6713 3.84916C15.7463 1.72325 6.80346 7.30171 4.69696 16.309C2.59046 25.3163 8.11797 34.3416 17.043 36.4675C25.968 38.5934 34.9108 33.0149 37.0173 24.0076Z" fill="url(#paint0_linear_107_68)"/>
<path d="M31.1231 14.9153C30.9838 13.53 30.46 12.3054 29.4388 11.3216C28.3645 10.291 27.0516 9.82926 25.6126 9.75565C23.1592 9.62181 17.3371 9.53481 15.2947 9.86942C12.9606 10.2509 11.4288 11.6295 10.779 13.9583C10.2816 15.7519 10.3811 24.01 10.6729 25.7768C11.0707 28.1993 12.4898 29.7519 14.8637 30.3676C16.5082 30.7959 24.5981 30.7424 26.415 30.4479C28.8155 30.0531 30.3605 28.6343 30.9838 26.2385C31.4612 24.3982 31.2955 16.575 31.1297 14.9153H31.1231ZM29.2001 25.4355C28.9215 27.2758 27.7081 28.4135 25.8779 28.6143C24.1936 28.8016 16.6806 28.902 15.1157 28.4603C13.6237 28.0387 12.7683 27.0014 12.5229 25.489C12.2842 24.0368 12.2245 16.8025 12.5229 14.8618C12.7948 13.0415 14.0083 11.9038 15.8318 11.6964C17.6819 11.4889 24.3329 11.4622 26.1033 11.7365C27.9203 12.0176 29.0475 13.2423 29.2465 15.096C29.4321 16.8226 29.4852 23.575 29.2067 25.4355H29.2001ZM20.8582 14.7614C17.9007 14.7614 15.5069 17.1773 15.5069 20.1553C15.5069 23.1333 17.9007 25.5559 20.8515 25.5559C23.8024 25.5559 26.2028 23.14 26.2028 20.162C26.2028 17.184 23.809 14.7614 20.8582 14.7614ZM20.8184 23.6486C18.9086 23.6286 17.3702 22.0559 17.3901 20.1286C17.41 18.2012 18.9683 16.6486 20.8781 16.6687C22.7878 16.6888 24.3262 18.2614 24.3063 20.1888C24.2864 22.1161 22.7281 23.6687 20.8184 23.6486ZM27.6683 14.5606C27.6683 15.2566 27.1046 15.8255 26.415 15.8188C25.7254 15.8188 25.1617 15.2499 25.1684 14.554C25.1684 13.858 25.732 13.2891 26.4216 13.2958C27.1113 13.2958 27.6749 13.8647 27.6683 14.5606Z" fill="white"/>
<path d="M31.1231 14.9153C30.9838 13.53 30.46 12.3054 29.4388 11.3216C28.3645 10.291 27.0516 9.82926 25.6126 9.75565C23.1592 9.62181 17.3371 9.53481 15.2947 9.86942C12.9606 10.2509 11.4288 11.6295 10.779 13.9583C10.2816 15.7519 10.3811 24.01 10.6729 25.7768C11.0707 28.1993 12.4898 29.7519 14.8637 30.3676C16.5082 30.7959 24.5981 30.7424 26.415 30.4479C28.8155 30.0531 30.3605 28.6343 30.9838 26.2385C31.4612 24.3982 31.2955 16.575 31.1297 14.9153H31.1231ZM29.2001 25.4355C28.9215 27.2758 27.7081 28.4135 25.8779 28.6143C24.1936 28.8016 16.6806 28.902 15.1157 28.4603C13.6237 28.0387 12.7683 27.0014 12.5229 25.489C12.2842 24.0368 12.2245 16.8025 12.5229 14.8618C12.7948 13.0415 14.0083 11.9038 15.8318 11.6964C17.6819 11.4889 24.3329 11.4622 26.1033 11.7365C27.9203 12.0176 29.0475 13.2423 29.2465 15.096C29.4321 16.8226 29.4852 23.575 29.2067 25.4355H29.2001ZM20.8582 14.7614C17.9007 14.7614 15.5069 17.1773 15.5069 20.1553C15.5069 23.1333 17.9007 25.5559 20.8515 25.5559C23.8024 25.5559 26.2028 23.14 26.2028 20.162C26.2028 17.184 23.809 14.7614 20.8582 14.7614ZM20.8184 23.6486C18.9086 23.6286 17.3702 22.0559 17.3901 20.1286C17.41 18.2012 18.9683 16.6486 20.8781 16.6687C22.7878 16.6888 24.3262 18.2614 24.3063 20.1888C24.2864 22.1161 22.7281 23.6687 20.8184 23.6486ZM27.6683 14.5606C27.6683 15.2566 27.1046 15.8255 26.415 15.8188C25.7254 15.8188 25.1617 15.2499 25.1684 14.554C25.1684 13.858 25.732 13.2891 26.4216 13.2958C27.1113 13.2958 27.6749 13.8647 27.6683 14.5606Z" fill="white"/>
<defs>
<linearGradient id="paint0_linear_107_68" x1="38.8397" y1="2.00378" x2="-4.35002" y2="44.8056" gradientUnits="userSpaceOnUse">
<stop offset="0.01" stop-color="#3542E0"/>
<stop offset="0.17" stop-color="#3741DE"/>
<stop offset="0.27" stop-color="#3F3FDA"/>
<stop offset="0.36" stop-color="#4E3CD2"/>
<stop offset="0.43" stop-color="#6237C7"/>
<stop offset="0.5" stop-color="#7D31B9"/>
<stop offset="0.56" stop-color="#9D29A7"/>
<stop offset="0.62" stop-color="#C82091"/>
<stop offset="0.76" stop-color="#F62B37"/>
<stop offset="1" stop-color="#FFC658"/>
</linearGradient>
</defs>
</svg>
