<svg width="41" height="41" viewBox="0 0 41 41" fill="none" xmlns="http://www.w3.org/2000/svg">
<path d="M37.0173 24.0076C39.1238 15.0003 33.5963 5.97507 24.6713 3.84916C15.7463 1.72324 6.80346 7.30171 4.69696 16.309C2.59047 25.3163 8.11797 34.3416 17.043 36.4675C25.968 38.5934 34.9108 33.0149 37.0173 24.0076Z" fill="#007AB5"/>
<path d="M12.9603 16.635H16.5942V28.4199H12.9603V16.635ZM14.7773 10.7793C15.9377 10.7793 16.8793 11.7296 16.8793 12.9007C16.8793 14.0719 15.9377 15.0288 14.7773 15.0288C13.6168 15.0288 12.6686 14.0785 12.6686 12.9007C12.6686 11.7229 13.6102 10.7793 14.7773 10.7793Z" fill="white"/>
<path d="M18.8687 16.6349H22.35V18.2478H22.3964C22.8805 17.3175 24.0674 16.3472 25.8313 16.3472C29.5049 16.3472 30.1812 18.7831 30.1812 21.9619V28.4266H26.5541V22.6981C26.5541 21.3329 26.5275 19.5728 24.6708 19.5728C22.8141 19.5728 22.4958 21.0585 22.4958 22.5977V28.4266H18.8687V16.6416V16.6349Z" fill="white"/>
</svg>
