<svg width="11" height="14" viewBox="0 0 11 14" fill="none" xmlns="http://www.w3.org/2000/svg">
<path d="M5.50021 0C4.04197 0.00165427 2.64393 0.581671 1.6128 1.6128C0.581671 2.64393 0.00165427 4.04197 0 5.50021C0 10.2066 5.00019 13.763 5.2127 13.913C5.29787 13.9697 5.3979 14 5.50021 14C5.60253 14 5.70256 13.9697 5.78772 13.913C6.00023 13.763 11.0004 10.2066 11.0004 5.50021C10.9988 4.04197 10.4188 2.64393 9.38763 1.6128C8.35649 0.581671 6.95845 0.00165427 5.50021 0ZM5.50021 3.50014C5.89579 3.50014 6.28249 3.61744 6.6114 3.83721C6.94031 4.05698 7.19666 4.36935 7.34804 4.73482C7.49943 5.10028 7.53903 5.50243 7.46186 5.89041C7.38469 6.27839 7.1942 6.63477 6.91448 6.91448C6.63477 7.1942 6.27839 7.38469 5.89041 7.46186C5.50243 7.53903 5.10028 7.49943 4.73482 7.34804C4.36935 7.19666 4.05698 6.94031 3.83721 6.6114C3.61744 6.28249 3.50014 5.89579 3.50014 5.50021C3.50014 4.96976 3.71086 4.46103 4.08595 4.08595C4.46103 3.71086 4.96976 3.50014 5.50021 3.50014Z" fill="#2874B9"/>
</svg>
