<svg width="41" height="41" viewBox="0 0 41 41" fill="none" xmlns="http://www.w3.org/2000/svg">
<path d="M37.0173 24.0076C39.1238 15.0003 33.5963 5.97508 24.6713 3.84916C15.7463 1.72325 6.80345 7.30172 4.69696 16.309C2.59046 25.3163 8.11797 34.3416 17.043 36.4675C25.968 38.5934 34.9108 33.0149 37.0173 24.0076Z" fill="#1BA5D4"/>
<path fill-rule="evenodd" clip-rule="evenodd" d="M17.817 25.4269C15.7481 25.3533 14.4551 23.8542 14.1103 22.6362C14.6872 22.7433 15.2508 22.7232 15.8145 22.5827C15.8277 22.5827 15.841 22.5693 15.8741 22.5559C14.7535 22.2949 13.8914 21.6859 13.288 20.7089C12.8902 20.0597 12.6979 19.3504 12.7045 18.5741C13.2615 18.8752 13.8517 19.0425 14.475 19.0626C13.6328 18.4469 13.0692 17.6505 12.8371 16.6266C12.605 15.6027 12.7575 14.6324 13.2615 13.7155C15.4166 16.2786 18.1486 17.684 21.4708 17.9115C21.4442 17.7509 21.4243 17.6104 21.4044 17.4698C21.2917 16.5262 21.4774 15.6429 21.988 14.8398C22.6179 13.836 23.5264 13.2136 24.6868 13.0262C26.0263 12.8054 27.1934 13.1868 28.1748 14.1438C28.2411 14.2107 28.2941 14.2308 28.387 14.2107C29.2026 14.0301 29.9784 13.7356 30.7012 13.314C30.7211 13.3006 30.7343 13.2939 30.7542 13.2872C30.7542 13.2872 30.7675 13.2872 30.7808 13.2872C30.4691 14.2241 29.8922 14.9402 29.0766 15.4756C29.8458 15.3886 30.5818 15.1811 31.2914 14.8733C31.2914 14.8733 31.3046 14.8867 31.3046 14.8934C31.1521 15.0941 31.0062 15.3016 30.8471 15.4956C30.4227 16.0243 29.9386 16.4861 29.4015 16.8809C29.3551 16.9144 29.3352 16.9479 29.3352 17.0081C29.3551 17.6037 29.3352 18.1993 29.2623 18.7949C29.1097 20.0463 28.7649 21.2376 28.2344 22.3752C27.6907 23.5464 26.9745 24.6104 26.0793 25.5406C24.5608 27.12 22.7373 28.1439 20.6087 28.619C19.8793 28.7797 19.1366 28.8667 18.3939 28.8867C16.0996 28.9537 13.9776 28.3781 12.0215 27.1601C11.995 27.1468 11.9751 27.1267 11.9286 27.0999C13.3212 27.2538 14.6408 27.0731 15.9139 26.5445C16.5903 26.2634 17.2136 25.902 17.8104 25.4336L17.817 25.4269Z" fill="white"/>
</svg>
