<svg width="41" height="41" viewBox="0 0 41 41" fill="none" xmlns="http://www.w3.org/2000/svg">
<path d="M37.0173 24.0076C39.1238 15.0003 33.5963 5.97508 24.6713 3.84916C15.7463 1.72325 6.80345 7.30172 4.69696 16.309C2.59046 25.3163 8.11797 34.3416 17.043 36.4675C25.968 38.5934 34.9108 33.0149 37.0173 24.0076Z" fill="#FD3832"/>
<path fill-rule="evenodd" clip-rule="evenodd" d="M13.1242 26.649C12.3882 26.4081 11.8908 25.9196 11.6256 25.1834C10.9758 23.3832 10.7835 15.8612 12.0367 14.3755C12.4611 13.8669 13.0115 13.5725 13.668 13.4988C17.0299 13.1308 27.4208 13.1843 28.621 13.6193C29.3239 13.8736 29.8212 14.3354 30.0931 15.0447C30.8026 16.9052 30.8292 23.671 30.0003 25.4578C29.7748 25.9463 29.4101 26.2876 28.9459 26.5352C27.6927 27.1978 14.782 27.1911 13.1309 26.6423L13.1242 26.649ZM18.4689 23.1222C20.4913 22.0649 22.4939 21.0142 24.523 19.9501C22.4873 18.8794 20.4847 17.822 18.4689 16.7579V23.1155V23.1222Z" fill="white"/>
</svg>
