<?xml version="1.0" encoding="utf-8"?>
<!-- Generator: Adobe Illustrator 27.1.0, SVG Export Plug-In . SVG Version: 6.00 Build 0)  -->
<svg version="1.1" id="Layer_1" xmlns="http://www.w3.org/2000/svg" xmlns:xlink="http://www.w3.org/1999/xlink" x="0px" y="0px"
	 viewBox="0 0 1080 530" style="enable-background:new 0 0 1080 530;" xml:space="preserve">
<style type="text/css">
	.st0{fill:url(#SVGID_1_);}
	.st1{fill:url(#SVGID_00000180367778168137999590000008909300438013148565_);}
	.st2{fill:url(#SVGID_00000035532346587493647320000006408810098136805768_);}
	.st3{fill:url(#SVGID_00000164506691272934287380000002767667548877200532_);}
	.st4{fill:#2874B9;}
	.st5{font-family:'Lato-ExtraBoldItalic';}
	.st6{font-size:117.0659px;}
</style>
<g>
	<linearGradient id="SVGID_1_" gradientUnits="userSpaceOnUse" x1="345.4467" y1="123.8014" x2="471.0251" y2="123.8014">
		<stop  offset="0" style="stop-color:#1596D4"/>
		<stop  offset="1" style="stop-color:#2265A7"/>
	</linearGradient>
	<path class="st0" d="M415.2,8.5h46.6c6.2,0,10.6,5.9,8.9,11.8l-60.6,212.1c-1.1,4-4.8,6.7-8.9,6.7h-46.5c-6.1,0-10.6-5.9-8.9-11.8
		l60.5-212.1C407.4,11.3,411,8.5,415.2,8.5z"/>
	
		<linearGradient id="SVGID_00000093172518714955944350000011980667864526806687_" gradientUnits="userSpaceOnUse" x1="477.0373" y1="123.8014" x2="602.6155" y2="123.8014">
		<stop  offset="0" style="stop-color:#1596D4"/>
		<stop  offset="1" style="stop-color:#2265A7"/>
	</linearGradient>
	<path style="fill:url(#SVGID_00000093172518714955944350000011980667864526806687_);" d="M546.8,8.5h46.6c6.2,0,10.6,5.9,8.9,11.8
		l-60.6,212.1c-1.1,4-4.8,6.7-8.9,6.7h-46.5c-6.1,0-10.6-5.9-8.9-11.8l60.5-212.1C539,11.3,542.6,8.5,546.8,8.5z"/>
	
		<linearGradient id="SVGID_00000060000745072768672620000003743746684856789144_" gradientUnits="userSpaceOnUse" x1="641.9872" y1="123.8014" x2="767.5656" y2="123.8014">
		<stop  offset="0" style="stop-color:#1596D4"/>
		<stop  offset="1" style="stop-color:#2265A7"/>
	</linearGradient>
	<path style="fill:url(#SVGID_00000060000745072768672620000003743746684856789144_);" d="M711.7,8.5h46.6c6.2,0,10.6,5.9,8.9,11.8
		l-60.6,212.1c-1.1,4-4.8,6.7-8.9,6.7h-46.5c-6.1,0-10.6-5.9-8.9-11.8l60.5-212.1C703.9,11.3,707.6,8.5,711.7,8.5z"/>
	<g>
		
			<linearGradient id="SVGID_00000100385199948659696800000011457497421098509999_" gradientUnits="userSpaceOnUse" x1="779.5976" y1="20.5093" x2="417.9682" y2="182.1994">
			<stop  offset="0" style="stop-color:#CC5127"/>
			<stop  offset="0.2403" style="stop-color:#F26322"/>
			<stop  offset="1" style="stop-color:#FFCF2A"/>
		</linearGradient>
		<path style="fill:url(#SVGID_00000100385199948659696800000011457497421098509999_);" d="M856.7,37.3
			C766.1,30.5,683.4,98,614.5,138.4c-78,45.7-171,80.3-254,31.1c-3.6-2.1-1.9-7,2.5-7.1c89.5-2.7,159.5-54.8,228.7-101.1
			C673.4,6.6,745.4-20.4,856.7,37.3z"/>
	</g>
	<text transform="matrix(1 0 0 1 198.1396 383.6859)"><tspan x="0" y="0" class="st4 st5 st6">HINDUSTAN </tspan><tspan x="-194.2" y="140.5" class="st4 st5 st6">THERMODYNAMICS</tspan></text>
</g>
</svg>
